PathFileType	4	(X/Y/Z)	subject01_walk1.trc
DataRate	CameraRate	NumFrames	NumMarkers	Units	OrigDataRate	OrigDataStartFrame	OrigNumFrames
60.00	60.00	       4	41	mm	60.00	95	       151
Frame#	Time	R.ASIS			L.ASIS			V.Sacral			R.Thigh.Upper			R.Thigh.Front			R.Thigh.Rear			L.Thigh.Upper			L.Thigh.Front			L.Thigh.Rear			R.Shank.Upper			R.Shank.Front			R.Shank.Rear			L.Shank.Upper			L.Shank.Front			L.Shank.Rear			R.Heel			R.Midfoot.Sup			R.Midfoot.Lat			R.Toe.Tip			L.Heel			L.Midfoot.Sup			L.Midfoot.Lat			L.Toe.Tip			Sternum			R.Acromium			L.Acromium			R.Bicep			L.Bicep			R.Elbow			L.Elbow			R.Wrist.Med			R.Wrist.Lat			L.Wrist.Med			L.Wrist.Lat			R.Toe.Lat			R.Toe.Med			L.Toe.Lat			L.Toe.Med			R.Temple			L.Temple			Top.Head			
		X1	Y1	Z1	X2	Y2	Z2	X3	Y3	Z3	X4	Y4	Z4	X5	Y5	Z5	X6	Y6	Z6	X7	Y7	Z7	X8	Y8	Z8	X9	Y9	Z9	X10	Y10	Z10	X11	Y11	Z11	X12	Y12	Z12	X13	Y13	Z13	X14	Y14	Z14	X15	Y15	Z15	X16	Y16	Z16	X17	Y17	Z17	X18	Y18	Z18	X19	Y19	Z19	X20	Y20	Z20	X21	Y21	Z21	X22	Y22	Z22	X23	Y23	Z23	X24	Y24	Z24	X25	Y25	Z25	X26	Y26	Z26	X27	Y27	Z27	X28	Y28	Z28	X29	Y29	Z29	X30	Y30	Z30	X31	Y31	Z31	X32	Y32	Z32	X33	Y33	Z33	X34	Y34	Z34	X35	Y35	Z35	X36	Y36	Z36	X37	Y37	Z37	X38	Y38	Z38	X39	Y39	Z39	X40	Y40	Z40	X41	Y41	Z41	

95	1.567000	1609.980770	1088.596310	1125.741840	1621.704220	1070.221920	866.436540	1418.276460	1072.717770	999.286190	1652.214050	773.735110	1195.657410	1740.573550	729.802310	1116.991970	1682.192750	655.078670	1198.189130	1577.566960	763.605040	823.646000	1664.089230	729.846740	894.686790	1578.094360	653.840390	845.732710	1608.730100	527.614380	1184.074950	1648.023440	446.448580	1142.722230	1561.689760	454.786960	1190.964110	1564.043150	439.024960	858.776350	1607.907290	389.511050	914.538070	1542.906370	396.548460	852.699520	1311.440670	279.896790	1082.908040	1421.681210	181.439640	1077.403310	1384.449280	181.687940	1176.124650	1495.023280	63.464820	1136.080230	1456.729520	76.492660	955.418620	1627.011600	75.608130	986.952440	1612.526980	68.568040	889.248210	1738.636050	49.994140	958.447910	1634.909850	1388.336300	980.275560	1520.245480	1483.064700	1179.641910	1580.192990	1490.737180	765.078740	1514.216610	1286.162350	1235.869670	1624.660950	1253.203370	749.376720	1462.461670	1188.193480	1266.063050	1590.173650	1151.759890	710.935030	1581.821230	946.432980	1282.803710	1535.844540	938.952090	1330.108520	1722.170230	941.923340	775.616710	1684.915530	923.772710	713.479460	1424.827790	101.429690	1202.472730	1463.086490	96.449180	1096.535340	1675.204710	42.316090	882.099400	1688.419070	51.116280	983.086180	1692.506230	1614.954350	1059.261630	1709.851200	1617.522090	920.769260	1695.150510	1792.246220	994.669130	
96	1.583000	1608.600340	1089.638310	1123.663570	1619.073300	1069.673830	864.262420	1416.242610	1073.196290	999.216260	1659.204160	778.521730	1195.244710	1745.912410	735.648620	1113.969870	1692.234860	660.573240	1196.832820	1567.935120	763.840150	822.946470	1656.971070	729.186040	892.103870	1567.080140	654.519710	844.869290	1621.886170	528.612240	1184.579830	1665.771000	449.507290	1140.629100	1578.248780	452.275700	1189.941670	1548.069210	438.975460	857.648770	1591.103210	389.010560	914.621570	1526.393740	396.759090	852.546330	1339.292570	261.837520	1083.515240	1456.553680	171.917450	1076.888430	1420.776180	169.075700	1176.018400	1538.600460	59.325530	1134.416950	1437.612580	76.718560	955.320090	1607.681640	75.132680	987.698380	1593.378420	68.785900	889.197390	1719.777650	49.639480	958.285890	1633.821470	1388.886600	980.050790	1518.192080	1483.103760	1178.863940	1579.682310	1492.336300	764.440840	1509.245670	1285.840330	1235.121750	1625.961980	1255.820920	748.894390	1456.397830	1189.078000	1264.064580	1593.028380	1152.677490	710.916780	1574.666200	946.921810	1281.447780	1527.949770	939.450680	1328.239470	1731.699160	947.713930	777.789700	1692.643980	928.334110	716.484770	1467.229030	92.282780	1201.789570	1503.996890	90.075550	1095.368230	1656.106260	42.096890	881.876380	1669.586000	50.868230	982.986090	1692.095150	1616.286500	1059.021260	1708.230220	1618.581790	921.174410	1692.955750	1792.981080	994.523810	
97	1.600000	1607.877620	1090.688840	1122.274510	1618.594060	1068.891970	861.887800	1413.967410	1073.249510	999.246140	1665.262820	782.277830	1193.526060	1749.275210	741.274480	1111.592200	1699.836790	665.298340	1195.189820	1558.435490	763.938110	822.075670	1647.759830	727.171390	890.228440	1554.669430	654.557980	844.577760	1633.917540	527.704350	1182.137730	1683.504150	452.269010	1139.733220	1597.447940	448.792880	1188.458660	1532.385070	439.555050	857.513230	1575.788700	389.209290	914.347030	1510.257510	396.992460	852.321980	1369.301030	241.220460	1084.220960	1493.433840	161.064730	1076.576150	1459.197480	155.159440	1176.136580	1584.283690	55.337440	1133.487720	1418.667210	76.942570	955.039850	1588.377260	74.649480	988.958290	1574.060360	69.037470	889.045380	1700.950930	49.288490	958.169370	1632.839420	1388.998540	979.921550	1517.632510	1482.801880	1178.637860	1579.243100	1493.048340	764.455610	1504.735080	1286.118770	1233.350130	1627.299990	1256.963260	748.169190	1450.713040	1189.517330	1262.139680	1595.511540	1153.290160	709.569340	1567.198910	947.236690	1280.269530	1520.216670	939.011230	1326.395050	1741.052920	954.723880	781.384230	1705.667240	932.592960	717.496220	1512.004210	81.900650	1200.866460	1546.269900	83.283600	1095.145970	1637.066280	41.935700	881.614860	1650.574280	50.478740	982.882720	1690.426640	1616.467530	1059.394250	1707.134950	1619.066890	921.363490	1690.924380	1793.315920	994.970950	
98	1.617000	1605.543090	1090.261470	1120.627890	1614.812500	1067.949340	860.712600	1411.510070	1072.992070	999.203920	1667.158510	785.081180	1192.032990	1752.210880	745.857420	1108.872550	1704.871400	668.441410	1193.008060	1549.281130	763.867610	821.058840	1635.712040	725.015630	889.638490	1543.937260	654.514340	843.639530	1643.682370	525.971250	1180.653260	1699.251460	455.345860	1137.657580	1612.856690	444.709530	1187.412260	1516.834230	439.380100	857.094600	1560.298950	389.173770	913.253000	1494.481900	397.229950	852.114530	1401.567350	218.511280	1084.746430	1532.239620	149.494170	1076.637150	1499.250640	140.719830	1176.494660	1631.762630	52.232860	1133.730210	1399.982390	77.135560	954.684500	1569.166990	74.163710	990.370730	1554.782780	69.049300	888.783190	1682.015200	48.906700	958.064190	1632.023740	1387.995610	978.897280	1516.542240	1481.102540	1178.390810	1578.510620	1493.316410	763.897950	1501.388000	1285.451420	1232.196400	1628.102420	1257.623660	747.818790	1445.426090	1189.482060	1260.287110	1596.966610	1153.221310	709.415010	1561.763000	946.377560	1279.109890	1513.244320	938.096560	1324.104030	1749.957400	962.072940	782.774000	1715.059940	936.636290	721.431240	1556.867800	72.066730	1200.868820	1590.453860	76.720380	1095.961740	1618.106630	41.791490	881.340250	1631.311460	49.953230	982.783310	1689.845340	1616.213260	1059.517150	1706.361940	1619.136110	921.378500	1688.993160	1793.014040	995.341250	
